<svg width="266" height="264" className="" viewBox="0 0 266 264" fill="none"
    xmlns="http://www.w3.org/2000/svg">
    <g opacity="0.37">
        <path fill-rule="evenodd" clip-rule="evenodd"
            d="M246.165 -48.8429C244.764 -49.6233 244.064 -50.0135 243.304 -50.2888C242.629 -50.5332 241.92 -50.7098 241.186 -50.8162C240.36 -50.936 239.494 -50.936 237.762 -50.936H199.272C195.022 -50.936 192.897 -50.936 190.903 -50.3041C189.14 -49.7452 187.459 -48.8328 185.98 -47.6315C184.307 -46.2732 183.005 -44.4123 180.399 -40.6907L56.8696 135.77C54.6915 138.882 53.6024 140.438 52.9847 142.074C52.4376 143.524 52.1625 145.014 52.1735 146.468C52.186 148.109 52.6986 149.675 53.7238 152.808L63.2047 181.779C66.162 190.815 67.6407 195.334 66.4311 199.006C65.3748 202.212 63.0602 205.08 60.0308 206.936C56.5616 209.062 51.4363 209.062 41.1858 209.062H17.2637C13.0133 209.062 10.8881 209.062 8.89442 209.694C7.1312 210.252 5.45037 211.165 3.97115 212.366C2.29861 213.724 0.995956 215.585 -1.60934 219.307L-62.9837 306.98C-69.35 316.074 -72.5331 320.621 -72.6661 324.324C-72.7822 327.556 -71.4998 330.457 -69.1238 332.337C-66.4023 334.49 -61.2091 334.49 -50.8227 334.49H21.1684C25.273 334.49 27.3254 334.49 29.2618 333.895C30.9749 333.368 32.6145 332.507 34.0712 331.37C35.7178 330.084 37.0291 328.318 39.6516 324.786L80.0156 270.422C82.6381 266.89 83.9494 265.124 85.596 263.838C87.0527 262.7 88.6923 261.839 90.4054 261.312C92.3418 260.717 94.3941 260.717 98.4988 260.717H198.027C204.455 260.717 207.668 260.717 209.954 261.927C211.965 262.993 213.478 264.697 214.288 266.811C215.209 269.212 214.8 272.373 213.983 278.694L209.096 316.513C208.279 322.834 207.87 325.995 208.791 328.396C209.601 330.51 211.114 332.215 213.125 333.28C215.411 334.49 218.624 334.49 225.052 334.49H606.801C613.513 334.49 616.869 334.49 619.661 333.204C622.117 332.073 624.271 330.268 625.814 328.048C627.569 325.524 628.157 322.22 629.331 315.612L637.628 268.946C638.802 262.338 639.39 259.034 638.532 256.51C637.778 254.29 636.266 252.485 634.212 251.354C631.877 250.068 628.521 250.068 621.81 250.068H494.802C482.466 250.068 476.298 250.068 473.489 247.56C471.046 245.378 469.949 242.059 470.502 238.519C471.138 234.451 475.7 229.591 484.825 219.871L680.309 11.6334C682.061 9.76638 682.937 8.83289 683.625 7.80504C684.234 6.89299 684.732 5.92797 685.106 4.93382C685.528 3.81345 685.735 2.64701 686.15 0.314129L691.994 -32.5606C693.169 -39.1685 693.756 -42.4724 692.899 -44.9963C692.145 -47.2163 690.632 -49.0213 688.579 -50.1525C686.244 -51.4385 682.888 -51.4385 676.176 -51.4385H394.51C387.798 -51.4385 384.442 -51.4385 381.65 -50.1525C379.194 -49.0213 377.04 -47.2163 375.497 -44.9963C373.742 -42.4724 373.154 -39.1685 371.98 -32.5606L363.683 14.1055C362.509 20.7134 361.921 24.0173 362.779 26.5412C363.533 28.7613 365.045 30.5662 367.099 31.6974C369.434 32.9834 372.79 32.9834 379.501 32.9834H506.509C518.845 32.9834 525.013 32.9834 527.822 35.4913C530.265 37.6737 531.362 40.9928 530.809 44.5328C530.173 48.6005 525.61 53.4605 516.486 63.1806L357.516 232.522C346.809 243.928 341.456 249.631 336.978 250.587C333.092 251.416 329.351 250.436 326.912 247.949C324.101 245.083 324.309 238.032 324.726 223.93L331.096 8.23098C331.2 4.71058 331.252 2.95037 330.808 1.41092C330.415 0.0477028 329.741 -1.1838 328.821 -2.2176C327.783 -3.38505 326.321 -4.19916 323.397 -5.82739L246.165 -48.8429ZM240.975 55.2068C242.034 55.2068 242.761 56.0255 242.626 57.0669L228.981 162.648C228.091 169.539 227.645 172.984 225.916 175.631C224.397 177.957 222.211 179.865 219.69 181.064C216.823 182.427 213.319 182.427 206.313 182.427H177.948C167.224 182.427 161.862 182.427 159.122 180.208C156.731 178.271 155.48 175.29 155.675 171.995C155.9 168.218 159.325 163.604 166.177 154.376L239.063 56.2109C239.523 55.5911 240.255 55.2068 240.975 55.2068Z"
            fill="#C74321" />
        <path
            d="M-83 338.543L345.182 430.104C351.274 431.406 355.549 422.52 349.949 420.195C344.429 417.903 348.504 409.149 354.575 410.259L530.626 442.433C531.236 442.544 531.542 442.6 531.852 442.639C532.128 442.674 532.407 442.699 532.688 442.714C533.004 442.731 533.325 442.731 533.965 442.731H588.73C597.087 442.731 601.266 442.731 602.793 442.362C612.986 439.904 617.719 427.412 610.706 421.479C609.654 420.59 606.07 419.022 598.901 415.887L534.549 387.742C531.262 386.304 527.648 390.942 530.212 393.309C532.482 395.405 529.861 399.593 526.597 399.085L234.922 353.64C226.727 352.363 220.226 362.97 226.065 368.092C231.878 373.191 225.459 383.754 217.277 382.555L-83 338.543Z"
            fill="#C74321" />
    </g>
</svg>