<svg width="11" height="33" viewBox="0 0 11 33" fill="none" xmlns="http://www.w3.org/2000/svg">
    <path
        d="M5.98462 31.9041L6.28597 32.2574L6.66055 31.983L9.54363 29.8706L9.9721 29.5567L9.63288 29.148C8.49426 27.776 7.6101 26.4173 6.97441 25.0724C6.33476 23.7095 5.8822 22.3367 5.61458 20.9533C5.35414 19.5482 5.21892 18.1045 5.20942 16.6218C5.21892 15.139 5.35418 13.7001 5.61459 12.3046C5.88225 10.9115 6.33481 9.53895 6.9741 8.18624L6.97466 8.18505C7.61037 6.83071 8.49447 5.46743 9.63288 4.09574L9.9721 3.68701L9.54363 3.37309L6.66055 1.26073L6.28597 0.986288L5.98462 1.33959C4.85085 2.66884 3.88105 4.17582 3.07397 5.85804L3.07344 5.85916C2.27688 7.52998 1.67017 9.28744 1.25302 11.1307L1.25301 11.1307L1.25247 11.1331C0.845377 12.9747 0.660217 14.8046 0.698212 16.6218C0.660217 18.4391 0.845377 20.269 1.25246 22.1106L1.25315 22.1136C1.6703 23.9471 2.27688 25.704 3.07295 27.3835L3.07397 27.3857C3.88105 29.0679 4.85085 30.5749 5.98462 31.9041Z"
        stroke="#ACACAC" />
</svg>