<svg width="11" height="33" viewBox="0 0 11 33" fill="none" xmlns="http://www.w3.org/2000/svg">
    <path
        d="M4.97436 31.9041L4.67302 32.2574L4.29844 31.983L1.41535 29.8706L0.986889 29.5567L1.32611 29.148C2.46472 27.776 3.34888 26.4173 3.98458 25.0724C4.62423 23.7095 5.07678 22.3367 5.3444 20.9533C5.60484 19.5482 5.74006 18.1045 5.74957 16.6218C5.74006 15.139 5.6048 13.7001 5.34439 12.3046C5.07673 10.9115 4.62418 9.53895 3.98488 8.18624L3.98432 8.18505C3.34862 6.83071 2.46451 5.46743 1.32611 4.09574L0.986889 3.68701L1.41535 3.37309L4.29843 1.26073L4.67302 0.986288L4.97436 1.33959C6.10813 2.66884 7.07793 4.17582 7.88501 5.85804L7.88554 5.85916C8.6821 7.52998 9.28881 9.28744 9.70596 11.1307L9.70597 11.1307L9.70651 11.1331C10.1136 12.9747 10.2988 14.8046 10.2608 16.6218C10.2988 18.4391 10.1136 20.269 9.70652 22.1106L9.70584 22.1136C9.28869 23.9471 8.6821 25.704 7.88603 27.3835L7.88501 27.3857C7.07793 29.0679 6.10813 30.5749 4.97436 31.9041Z"
        stroke="#ACACAC" />
</svg>