<svg width="1856" height="760" viewBox="0 0 1856 760" fill="none" xmlns="http://www.w3.org/2000/svg">
<path d="M419.014 40.5352C419.014 31.0788 419.016 24.0871 419.737 18.723C420.454 13.3876 421.866 9.81229 424.579 7.10013C427.291 4.38796 430.866 2.9758 436.201 2.25847C441.566 1.53728 448.557 1.53516 458.014 1.53516H740.316C749.773 1.53516 756.764 1.53728 762.129 2.25847C767.464 2.9758 771.039 4.38796 773.751 7.10013C776.464 9.81229 777.876 13.3876 778.593 18.723C779.314 24.0871 779.316 31.0788 779.316 40.5352V719.549C779.316 729.006 779.314 735.997 778.593 741.362C777.876 746.697 776.464 750.272 773.751 752.984C771.039 755.697 767.464 757.109 762.129 757.826C756.764 758.547 749.773 758.549 740.316 758.549H458.014C448.557 758.549 441.566 758.547 436.201 757.826C430.866 757.109 427.291 755.697 424.579 752.984C421.866 750.272 420.454 746.697 419.737 741.362C419.016 735.997 419.014 729.006 419.014 719.549V40.5352Z" fill="#E13E3D" stroke="#F76868" stroke-width="2"/>
<path d="M1063.91 339.081C1063.91 329.624 1063.91 322.633 1064.63 317.268C1065.35 311.933 1066.76 308.358 1069.48 305.646C1072.19 302.933 1075.76 301.521 1081.1 300.804C1086.46 300.083 1093.45 300.081 1102.91 300.081H1131.97C1141.43 300.081 1148.42 300.083 1153.78 300.804C1159.12 301.521 1162.69 302.933 1165.4 305.646C1168.12 308.358 1169.53 311.933 1170.25 317.268C1170.97 322.633 1170.97 329.624 1170.97 339.081V719.549C1170.97 729.006 1170.97 735.997 1170.25 741.362C1169.53 746.697 1168.12 750.272 1165.4 752.984C1162.69 755.697 1159.12 757.109 1153.78 757.826C1148.42 758.547 1141.43 758.549 1131.97 758.549H1102.91C1093.45 758.549 1086.46 758.547 1081.1 757.826C1075.76 757.109 1072.19 755.697 1069.48 752.984C1066.76 750.272 1065.35 746.697 1064.63 741.362C1063.91 735.997 1063.91 729.006 1063.91 719.549V339.081Z" fill="#E13E3D" stroke="#F76868" stroke-width="2"/>
<path d="M746.799 120.484C746.799 111.028 746.801 104.036 747.522 98.6722C748.239 93.3368 749.652 89.7615 752.364 87.0493C755.076 84.3372 758.651 82.925 763.987 82.2077C769.351 81.4865 776.342 81.4844 785.799 81.4844H1038.86C1048.32 81.4844 1055.31 81.4865 1060.68 82.2077C1066.01 82.925 1069.59 84.3372 1072.3 87.0493C1075.01 89.7615 1076.42 93.3368 1077.14 98.6722C1077.86 104.036 1077.86 111.028 1077.86 120.484V719.549C1077.86 729.006 1077.86 735.997 1077.14 741.362C1076.42 746.697 1075.01 750.272 1072.3 752.984C1069.59 755.697 1066.01 757.109 1060.68 757.826C1055.31 758.547 1048.32 758.549 1038.86 758.549H785.799C776.342 758.549 769.351 758.547 763.987 757.826C758.651 757.109 755.076 755.697 752.364 752.984C749.652 750.272 748.239 746.697 747.522 741.362C746.801 735.997 746.799 729.006 746.799 719.549V120.484Z" fill="#E13E3D" stroke="#F76868" stroke-width="2"/>
<path d="M1161.95 250.023C1161.95 240.567 1161.95 233.575 1162.67 228.211C1163.39 222.875 1164.8 219.3 1167.52 216.588C1170.23 213.876 1173.8 212.464 1179.14 211.746C1184.5 211.025 1191.49 211.023 1200.95 211.023H1263.53C1272.99 211.023 1279.98 211.025 1285.34 211.746C1290.68 212.464 1294.25 213.876 1296.97 216.588C1299.68 219.3 1301.09 222.875 1301.81 228.211C1302.53 233.575 1302.53 240.567 1302.53 250.023V719.549C1302.53 729.006 1302.53 735.997 1301.81 741.362C1301.09 746.697 1299.68 750.272 1296.97 752.984C1294.25 755.697 1290.68 757.109 1285.34 757.826C1279.98 758.547 1272.99 758.549 1263.53 758.549H1200.95C1191.49 758.549 1184.5 758.547 1179.14 757.826C1173.8 757.109 1170.23 755.697 1167.52 752.984C1164.8 750.272 1163.39 746.697 1162.67 741.362C1161.95 735.997 1161.95 729.006 1161.95 719.549V250.023Z" fill="#E13E3D" stroke="#F76868" stroke-width="2"/>
<path d="M1258.09 71.9078C1258.09 62.4514 1258.1 55.4597 1258.82 50.0955C1259.53 44.7601 1260.95 41.1848 1263.66 38.4727C1266.37 35.7605 1269.95 34.3484 1275.28 33.631C1280.65 32.9098 1287.64 32.9077 1297.09 32.9077H1647.95C1657.41 32.9077 1664.4 32.9098 1669.76 33.631C1675.1 34.3484 1678.67 35.7605 1681.39 38.4727C1684.1 41.1848 1685.51 44.7601 1686.23 50.0955C1686.95 55.4597 1686.95 62.4514 1686.95 71.9077V719.549C1686.95 729.006 1686.95 735.997 1686.23 741.362C1685.51 746.697 1684.1 750.272 1681.39 752.984C1678.67 755.697 1675.1 757.109 1669.76 757.826C1664.4 758.547 1657.41 758.549 1647.95 758.549H1297.09C1287.64 758.549 1280.65 758.547 1275.28 757.826C1269.95 757.109 1266.37 755.697 1263.66 752.984C1260.95 750.272 1259.53 746.697 1258.82 741.362C1258.1 735.997 1258.09 729.006 1258.09 719.549V71.9078Z" fill="#E13E3D" stroke="#F76868" stroke-width="2"/>
<path d="M1573.73 189.302C1573.73 179.845 1573.73 172.854 1574.45 167.49C1575.17 162.154 1576.58 158.579 1579.29 155.867C1582.01 153.155 1585.58 151.742 1590.92 151.025C1596.28 150.304 1603.27 150.302 1612.73 150.302H1815.95C1825.4 150.302 1832.4 150.304 1837.76 151.025C1843.09 151.742 1846.67 153.155 1849.38 155.867C1852.09 158.579 1853.51 162.154 1854.22 167.49C1854.95 172.854 1854.95 179.845 1854.95 189.302V719.549C1854.95 729.006 1854.95 735.997 1854.22 741.362C1853.51 746.697 1852.09 750.272 1849.38 752.984C1846.67 755.697 1843.09 757.109 1837.76 757.826C1832.4 758.547 1825.4 758.549 1815.95 758.549H1612.73C1603.27 758.549 1596.28 758.547 1590.92 757.826C1585.58 757.109 1582.01 755.697 1579.29 752.984C1576.58 750.272 1575.17 746.697 1574.45 741.362C1573.73 735.997 1573.73 729.006 1573.73 719.549V189.302Z" fill="#E13E3D" stroke="#F76868" stroke-width="2"/>
<path d="M302.631 99.2325C302.631 89.7761 302.633 82.7844 303.354 77.4202C304.071 72.0848 305.484 68.5096 308.196 65.7974C310.908 63.0852 314.483 61.6731 319.819 60.9557C325.183 60.2345 332.174 60.2324 341.631 60.2324H440.76C450.216 60.2324 457.208 60.2345 462.572 60.9557C467.907 61.6731 471.483 63.0852 474.195 65.7974C476.907 68.5096 478.319 72.0848 479.036 77.4202C479.758 82.7844 479.76 89.7761 479.76 99.2324V719.549C479.76 729.006 479.758 735.997 479.036 741.362C478.319 746.697 476.907 750.272 474.195 752.984C471.483 755.697 467.907 757.109 462.572 757.826C457.208 758.547 450.216 758.549 440.76 758.549H341.631C332.175 758.549 325.183 758.547 319.819 757.826C314.483 757.109 310.908 755.697 308.196 752.984C305.484 750.272 304.071 746.697 303.354 741.362C302.633 735.997 302.631 729.006 302.631 719.549V99.2325Z" fill="#E13E3D" stroke="#F76868" stroke-width="2"/>
<path d="M40.0508 121.966H291.992C301.449 121.966 308.44 121.968 313.804 122.689C319.14 123.406 322.715 124.819 325.427 127.531C328.139 130.243 329.552 133.818 330.269 139.154C330.99 144.518 330.992 151.509 330.992 160.966V719.549C330.992 729.006 330.99 735.997 330.269 741.362C329.552 746.697 328.139 750.272 325.427 752.984C322.715 755.697 319.14 757.109 313.804 757.826C308.44 758.547 301.449 758.549 291.992 758.549H40.0508C30.5944 758.549 23.6027 758.547 18.2386 757.826C12.9032 757.109 9.32792 755.697 6.61575 752.984C3.90359 750.272 2.49142 746.697 1.7741 741.362C1.0529 735.997 1.05078 729.006 1.05078 719.549V160.966C1.05078 151.509 1.0529 144.518 1.7741 139.154C2.49142 133.818 3.90359 130.243 6.61575 127.531C9.32792 124.819 12.9032 123.406 18.2386 122.689C23.6027 121.968 30.5944 121.966 40.0508 121.966Z" fill="#E13E3D" stroke="#F76868" stroke-width="2"/>
</svg>
