<svg width="1169" height="513" viewBox="0 0 1169 513" fill="none" xmlns="http://www.w3.org/2000/svg">
    <circle cx="933.95" cy="140.466" r="3.37988" fill="#F1632B" />
    <circle cx="1165" cy="509.466" r="3.37988" fill="#F1632B" />
    <circle cx="133.38" cy="102.466" r="3.37988" fill="#F1632B" />
    <circle cx="30.8604" cy="48.4658" r="3.37988" fill="#F1632B" />
    <circle cx="76.5146" cy="130.466" r="3.37988" fill="#F1632B" />
    <circle cx="83.2744" cy="223.466" r="3.37988" fill="#F1632B" />
    <circle cx="213.481" cy="230.466" r="3.37988" fill="#F1632B" />
    <circle cx="244.239" cy="76.4658" r="3.37988" fill="#F1632B" />
    <circle cx="3.48145" cy="62.4658" r="3.37988" fill="#F1632B" />
    <circle cx="820.759" cy="237.466" r="3.37988" fill="#F1632B" />
    <circle cx="750.62" cy="164.466" r="3.37988" fill="#F1632B" />
    <circle cx="816.78" cy="132.466" r="3.37988" fill="#F1632B" />
    <circle cx="760.888" cy="105.466" r="3.37988" fill="#F1632B" />
    <circle cx="776.481" cy="85.4658" r="3.37988" fill="#F1632B" />
    <circle cx="992.86" cy="99.4658" r="3.37988" fill="#F1632B" />
    <circle cx="1058.62" cy="62.4658" r="3.37988" fill="#F1632B" />
    <circle cx="901.86" cy="56.4658" r="3.37988" fill="#F1632B" />
    <circle cx="817.38" cy="102.466" r="3.37988" fill="#F1632B" />
    <circle cx="714.899" cy="178.466" r="3.37988" fill="#F1632B" />
    <circle cx="633.62" cy="120.466" r="3.37988" fill="#F1632B" />
    <circle cx="591.673" cy="157.466" r="3.37988" fill="#F1632B" />
    <circle cx="692.62" cy="22.4658" r="3.37988" fill="#F1632B" />
    <circle cx="944.755" cy="70.4658" r="3.37988" fill="#F1632B" />
    <circle cx="880.001" cy="38.4658" r="3.37988" fill="#F1632B" />
    <circle cx="1012.99" cy="67.4658" r="3.37988" fill="#F1632B" />
    <circle cx="1109.38" cy="13.4658" r="3.37988" fill="#F1632B" />
    <circle cx="1039.72" cy="3.46582" r="3.37988" fill="#F1632B" />
    <circle cx="915.38" cy="26.4658" r="3.37988" fill="#F1632B" />
    <circle cx="842.481" cy="79.4658" r="3.37988" fill="#F1632B" />
    <circle cx="854.62" cy="25.4658" r="3.37988" fill="#F1632B" />
</svg>