<svg width="352" height="214" viewBox="0 0 352 214" fill="none" xmlns="http://www.w3.org/2000/svg">
    <path
        d="M0.744809 11.8439C0.744809 6.22642 5.29869 1.67254 10.9162 1.67254H340.827C346.444 1.67254 350.998 6.22642 350.998 11.8439C350.998 17.4614 346.444 22.0153 340.827 22.0153H10.9162C5.2987 22.0153 0.744809 17.4614 0.744809 11.8439Z"
        fill="#D9D9D9" stroke="white" stroke-width="1.4779" />
    <path
        d="M56.4805 11.8806C56.4805 9.94127 58.0526 8.36914 59.9919 8.36914H103.552C105.492 8.36914 107.064 9.94127 107.064 11.8806C107.064 13.8199 105.492 15.392 103.552 15.392H59.9919C58.0526 15.392 56.4805 13.8199 56.4805 11.8806Z"
        fill="white" />
    <path
        d="M114.455 11.8806C114.455 9.94127 116.027 8.36914 117.967 8.36914H161.527C163.466 8.36914 165.038 9.94127 165.038 11.8806C165.038 13.8199 163.466 15.392 161.527 15.392H117.967C116.027 15.392 114.455 13.8199 114.455 11.8806Z"
        fill="white" />
    <path
        d="M172.426 11.8806C172.426 9.94127 173.998 8.36914 175.937 8.36914H219.498C221.437 8.36914 223.009 9.94127 223.009 11.8806C223.009 13.8199 221.437 15.392 219.498 15.392H175.937C173.998 15.392 172.426 13.8199 172.426 11.8806Z"
        fill="white" />
    <path
        d="M230.4 11.8806C230.4 9.94127 231.973 8.36914 233.912 8.36914H277.472C279.412 8.36914 280.984 9.94127 280.984 11.8806C280.984 13.8199 279.412 15.392 277.472 15.392H233.912C231.973 15.392 230.4 13.8199 230.4 11.8806Z"
        fill="#F1632B" />
    <path
        d="M0.744809 35.8322C0.744809 30.2147 5.29869 25.6608 10.9162 25.6608H340.827C346.444 25.6608 350.998 30.2147 350.998 35.8322C350.998 41.4497 346.444 46.0036 340.827 46.0036H10.9162C5.2987 46.0036 0.744809 41.4497 0.744809 35.8322Z"
        fill="#E3E3E3" stroke="white" stroke-width="1.4779" />
    <path
        d="M25.3789 35.8306C25.3789 30.7476 29.4995 26.627 34.5826 26.627H35.3663C40.4493 26.627 44.5699 30.7476 44.5699 35.8306C44.5699 40.9137 40.4493 45.0343 35.3663 45.0343H34.5826C29.4995 45.0343 25.3789 40.9137 25.3789 35.8306Z"
        fill="#3A8BD3" />
    <path d="M31.7722 32.3262L33.5387 38.9103L35.3855 36.3408L38.0352 35.2167L31.7722 32.3262Z"
        stroke="#808080" stroke-width="0.738949" />
    <path
        d="M14.8871 32.9994C14.8871 32.4347 15.3449 31.9769 15.9096 31.9769C16.4743 31.9769 16.9322 32.4347 16.9322 32.9994C16.9322 33.5642 16.4743 34.022 15.9096 34.022C15.3449 34.022 14.8871 33.5642 14.8871 32.9994Z"
        stroke="#808080" stroke-width="0.738949" />
    <path
        d="M19.7145 32.9994C19.7145 32.4347 19.2567 31.9769 18.692 31.9769C18.1272 31.9769 17.6694 32.4347 17.6694 32.9994C17.6694 33.5642 18.1272 34.022 18.692 34.022C19.2567 34.022 19.7145 33.5642 19.7145 32.9994Z"
        stroke="#808080" stroke-width="0.738949" />
    <path
        d="M14.8871 35.7846C14.8871 35.2199 15.3449 34.7621 15.9096 34.7621C16.4743 34.7621 16.9322 35.2199 16.9322 35.7846C16.9322 36.3493 16.4743 36.8072 15.9096 36.8072C15.3449 36.8072 14.8871 36.3493 14.8871 35.7846Z"
        stroke="#808080" stroke-width="0.738949" />
    <path
        d="M19.7145 35.7846C19.7145 35.2199 19.2567 34.7621 18.692 34.7621C18.1272 34.7621 17.6694 35.2199 17.6694 35.7846C17.6694 36.3493 18.1272 36.8072 18.692 36.8072C19.2567 36.8072 19.7145 36.3493 19.7145 35.7846Z"
        stroke="#808080" stroke-width="0.738949" />
    <path
        d="M14.8871 38.5659C14.8871 38.0011 15.3449 37.5433 15.9096 37.5433C16.4743 37.5433 16.9322 38.0011 16.9322 38.5659C16.9322 39.1306 16.4743 39.5884 15.9096 39.5884C15.3449 39.5884 14.8871 39.1306 14.8871 38.5659Z"
        stroke="#808080" stroke-width="0.738949" />
    <line x1="52.5609" y1="32.3281" x2="52.5609" y2="39.2341" stroke="#808080"
        stroke-width="0.738949" />
    <line x1="50.4844" y1="37.1598" x2="57.3904" y2="37.1598" stroke="#808080"
        stroke-width="0.738949" />
    <line x1="56.055" y1="32.3281" x2="56.055" y2="39.2341" stroke="#808080" stroke-width="0.738949" />
    <line x1="50.4844" y1="33.6657" x2="57.3904" y2="33.6657" stroke="#808080"
        stroke-width="0.738949" />
    <path
        d="M70.391 35.6182C70.391 34.0041 71.6995 32.6956 73.3136 32.6956H73.9883C75.6024 32.6956 76.9109 34.0041 76.9109 35.6182C76.9109 37.2324 75.6024 38.5409 73.9883 38.5409H73.3136C71.6995 38.5409 70.391 37.2324 70.391 35.6182Z"
        stroke="#808080" stroke-width="0.738949" />
    <path
        d="M89.6211 32.3828L93.2956 36.0126M90.6196 33.3692C92.2831 33.0818 95.6639 33.2537 95.1558 36.9195L96.0837 37.3765L95.1558 38.7199L94.6207 37.973C92.9572 38.2603 90.1115 37.035 90.6196 33.3692Z"
        stroke="#808080" stroke-width="0.738949" />
    <path
        d="M109.036 39.0136H111.969H110.524V32.0859H112.862V33.7861M110.521 32.0864H108.184V33.7866"
        stroke="#808080" stroke-width="0.738949" />
    <path
        d="M125.596 33.3572C125.596 32.857 126.002 32.4515 126.502 32.4515C127.002 32.4515 127.407 32.857 127.407 33.3572V33.4004C127.407 33.9006 127.002 34.3061 126.502 34.3061C126.002 34.3061 125.596 33.9006 125.596 33.4004V33.3572Z"
        stroke="#808080" stroke-width="0.738949" />
    <path
        d="M129.756 37.5056C129.756 37.0054 130.162 36.5999 130.662 36.5999C131.162 36.5999 131.567 37.0054 131.567 37.5056V37.5489C131.567 38.0491 131.162 38.4545 130.662 38.4545C130.162 38.4545 129.756 38.0491 129.756 37.5489V37.5056Z"
        stroke="#808080" stroke-width="0.738949" />
    <path
        d="M125.846 38.1521C125.493 37.7984 125.493 37.225 125.846 36.8713C126.2 36.5177 126.774 36.5177 127.127 36.8713L127.158 36.9019C127.512 37.2556 127.512 37.829 127.158 38.1827C126.804 38.5364 126.231 38.5364 125.877 38.1827L125.846 38.1521Z"
        stroke="#808080" stroke-width="0.738949" />
    <line x1="130.823" y1="32.082" x2="130.823" y2="34.8892" stroke="#808080"
        stroke-width="0.738949" />
    <line x1="129.387" y1="33.5094" x2="132.194" y2="33.5094" stroke="#808080"
        stroke-width="0.738949" />
    <path
        d="M167.707 35.5087C167.707 37.5704 166.035 39.2417 163.974 39.2417C163.349 39.2417 162.761 39.0886 162.245 38.8181C162.122 38.7538 161.984 38.7331 161.872 38.7254C161.753 38.7173 161.623 38.7216 161.494 38.7312C161.282 38.747 161.04 38.7801 160.809 38.8117C160.761 38.8182 160.713 38.8247 160.666 38.831C160.383 38.8689 160.129 38.8987 159.929 38.8994C159.867 38.8996 159.817 38.8969 159.777 38.8924C159.781 38.8796 159.786 38.8654 159.792 38.8498C159.846 38.7007 159.946 38.5134 160.069 38.2917C160.08 38.2715 160.091 38.251 160.103 38.2303C160.21 38.0372 160.329 37.8231 160.413 37.6289C160.459 37.5202 160.502 37.4022 160.524 37.2848C160.546 37.1713 160.556 37.0215 160.498 36.8729C160.332 36.4508 160.241 35.9909 160.241 35.5087C160.241 33.447 161.912 31.7757 163.974 31.7757C166.035 31.7757 167.707 33.447 167.707 35.5087Z"
        stroke="#808080" stroke-width="0.738949" />
    <path
        d="M149.862 33.7281V38.3336C148.703 40.1646 146.406 40.0423 145.401 39.7522L142.244 36.0447V34.7993H143.693V32.0766H145.401V30.6289H146.444V31.3525H147.342V32.0766H148.414V32.7433H149.312V33.7281H149.862Z"
        stroke="#808080" stroke-width="0.738949" />
    <path
        d="M0.744809 89.1016C0.744809 79.6526 0.746378 72.6402 1.47045 67.2546C2.19167 61.8903 3.61749 58.2507 6.38624 55.4819C9.15499 52.7132 12.7945 51.2874 18.1589 50.5662C23.5445 49.8421 30.5569 49.8405 40.0059 49.8405H311.737C321.186 49.8405 328.198 49.8421 333.584 50.5662C338.948 51.2874 342.588 52.7132 345.357 55.4819C348.125 58.2507 349.551 61.8903 350.272 67.2546C350.997 72.6402 350.998 79.6526 350.998 89.1016V173.981C350.998 183.43 350.997 190.442 350.272 195.828C349.551 201.192 348.125 204.832 345.357 207.601C342.588 210.369 338.948 211.795 333.584 212.516C328.198 213.241 321.186 213.242 311.737 213.242H40.0058C30.5569 213.242 23.5445 213.241 18.1589 212.516C12.7945 211.795 9.15499 210.369 6.38624 207.601C3.61749 204.832 2.19167 201.192 1.47045 195.828C0.746378 190.442 0.744809 183.43 0.744809 173.981V89.1016Z"
        fill="#EDEDED" stroke="white" stroke-width="1.4779" />
    <path d="M200.799 89.873L206.06 109.484L211.561 101.831L219.453 98.4825L200.799 89.873Z"
        fill="#F1632B" />
    <path
        d="M217.533 125.719C217.533 115.683 225.669 107.547 235.705 107.547H291.057C301.093 107.547 309.229 115.683 309.229 125.719C309.229 135.755 301.093 143.891 291.057 143.891H235.705C225.669 143.891 217.533 135.755 217.533 125.719Z"
        fill="#F1632B" />
    <path
        d="M232.569 130.066L235.416 122.027H236.215L239.062 130.066H238.381L235.645 122.362H235.969L233.25 130.066H232.569ZM233.747 128.045V127.437H237.878V128.045H233.747ZM239.95 126.337V125.751H243.3V126.337H239.95ZM244.527 130.066V129.893L249.061 122.652H244.583V122.027H250.082V122.217L245.571 129.447H250.066V130.066H244.527ZM256.121 130.234C255.518 130.234 255.01 130.1 254.597 129.832C254.184 129.56 253.87 129.186 253.654 128.71C253.442 128.23 253.332 127.677 253.324 127.052C253.332 126.415 253.443 125.859 253.659 125.382C253.879 124.902 254.195 124.53 254.608 124.266C255.021 124.002 255.528 123.87 256.127 123.87C256.711 123.87 257.225 124.011 257.668 124.294C258.114 124.573 258.423 124.958 258.594 125.449L257.969 125.678C257.817 125.302 257.577 125.012 257.249 124.807C256.921 124.599 256.546 124.495 256.121 124.495C255.645 124.495 255.252 124.605 254.943 124.824C254.634 125.04 254.404 125.34 254.251 125.723C254.098 126.106 254.018 126.549 254.011 127.052C254.022 127.822 254.203 128.442 254.553 128.911C254.906 129.376 255.429 129.609 256.121 129.609C256.549 129.609 256.92 129.51 257.232 129.313C257.549 129.115 257.791 128.829 257.958 128.453L258.594 128.671C258.36 129.181 258.032 129.57 257.612 129.838C257.191 130.102 256.694 130.234 256.121 130.234ZM259.765 130.066V124.037H260.352V125.483L260.206 125.293C260.273 125.122 260.357 124.964 260.458 124.819C260.562 124.67 260.668 124.549 260.776 124.456C260.936 124.307 261.124 124.195 261.34 124.121C261.556 124.043 261.773 123.998 261.993 123.987C262.213 123.972 262.412 123.989 262.59 124.037V124.646C262.352 124.59 262.099 124.579 261.831 124.612C261.563 124.646 261.312 124.761 261.077 124.958C260.873 125.137 260.724 125.345 260.631 125.583C260.538 125.818 260.478 126.065 260.452 126.326C260.426 126.583 260.413 126.834 260.413 127.08V130.066H259.765ZM266.023 130.234C265.446 130.234 264.947 130.105 264.526 129.849C264.106 129.588 263.78 129.222 263.549 128.749C263.319 128.272 263.203 127.71 263.203 127.063C263.203 126.404 263.317 125.837 263.544 125.36C263.775 124.88 264.098 124.512 264.515 124.255C264.936 123.998 265.434 123.87 266.011 123.87C266.596 123.87 267.094 124.004 267.508 124.271C267.924 124.536 268.241 124.919 268.457 125.422C268.676 125.924 268.78 126.529 268.769 127.236H268.099V127.013C268.081 126.186 267.895 125.557 267.541 125.126C267.187 124.694 266.681 124.478 266.023 124.478C265.341 124.478 264.815 124.703 264.443 125.154C264.074 125.6 263.89 126.233 263.89 127.052C263.89 127.863 264.074 128.492 264.443 128.939C264.815 129.385 265.338 129.609 266.011 129.609C266.477 129.609 266.882 129.501 267.228 129.285C267.578 129.065 267.856 128.753 268.06 128.347L268.641 128.604C268.399 129.125 268.049 129.527 267.591 129.81C267.133 130.092 266.611 130.234 266.023 130.234ZM263.644 127.236V126.655H268.406V127.236H263.644ZM271.637 130.234C271.172 130.234 270.785 130.152 270.476 129.988C270.171 129.824 269.942 129.609 269.789 129.341C269.636 129.069 269.56 128.775 269.56 128.459C269.56 128.116 269.631 127.83 269.772 127.599C269.917 127.368 270.109 127.182 270.347 127.041C270.589 126.899 270.855 126.793 271.146 126.722C271.477 126.648 271.834 126.585 272.218 126.533C272.601 126.477 272.966 126.428 273.312 126.387C273.662 126.346 273.946 126.311 274.166 126.281L273.931 126.421C273.946 125.77 273.824 125.286 273.563 124.969C273.306 124.649 272.852 124.489 272.201 124.489C271.743 124.489 271.365 124.593 271.068 124.802C270.773 125.007 270.567 125.325 270.448 125.757L269.789 125.572C269.927 125.025 270.204 124.605 270.621 124.311C271.038 124.017 271.572 123.87 272.223 123.87C272.778 123.87 273.243 123.977 273.619 124.193C273.998 124.409 274.263 124.713 274.412 125.103C274.475 125.263 274.518 125.451 274.54 125.667C274.562 125.879 274.573 126.093 274.573 126.309V130.066H273.987V128.481L274.205 128.537C274.023 129.08 273.704 129.499 273.25 129.793C272.796 130.087 272.258 130.234 271.637 130.234ZM271.67 129.642C272.08 129.642 272.439 129.57 272.748 129.424C273.057 129.276 273.306 129.069 273.496 128.805C273.69 128.537 273.812 128.222 273.864 127.861C273.902 127.66 273.922 127.443 273.926 127.208C273.93 126.974 273.931 126.8 273.931 126.689L274.211 126.867C273.969 126.897 273.678 126.929 273.34 126.962C273.005 126.996 272.662 127.037 272.312 127.085C271.963 127.134 271.646 127.195 271.363 127.269C271.188 127.318 271.012 127.389 270.833 127.482C270.658 127.571 270.511 127.696 270.392 127.856C270.277 128.016 270.219 128.219 270.219 128.464C270.219 128.647 270.264 128.829 270.353 129.011C270.446 129.194 270.599 129.344 270.811 129.463C271.023 129.583 271.309 129.642 271.67 129.642ZM279.222 130.066C278.902 130.137 278.586 130.163 278.273 130.145C277.96 130.13 277.681 130.061 277.436 129.938C277.194 129.811 277.011 129.618 276.888 129.357C276.788 129.145 276.732 128.931 276.721 128.715C276.71 128.5 276.704 128.252 276.704 127.973V122.362H277.352V127.962C277.352 128.215 277.354 128.425 277.357 128.593C277.365 128.756 277.404 128.907 277.475 129.045C277.609 129.302 277.821 129.458 278.111 129.514C278.401 129.566 278.772 129.557 279.222 129.486V130.066ZM275.353 124.623V124.037H279.222V124.623H275.353ZM280.485 122.82V121.999H281.127V122.82H280.485ZM280.485 130.066V124.037H281.127V130.066H280.485ZM284.435 130.066L282.247 124.037H282.911L284.776 129.19L286.635 124.037H287.305L285.117 130.066H284.435ZM290.578 130.234C290.001 130.234 289.502 130.105 289.082 129.849C288.661 129.588 288.336 129.222 288.105 128.749C287.874 128.272 287.759 127.71 287.759 127.063C287.759 126.404 287.872 125.837 288.099 125.36C288.33 124.88 288.654 124.512 289.071 124.255C289.491 123.998 289.99 123.87 290.567 123.87C291.151 123.87 291.65 124.004 292.063 124.271C292.48 124.536 292.796 124.919 293.012 125.422C293.232 125.924 293.336 126.529 293.325 127.236H292.655V127.013C292.636 126.186 292.45 125.557 292.097 125.126C291.743 124.694 291.237 124.478 290.578 124.478C289.897 124.478 289.37 124.703 288.998 125.154C288.63 125.6 288.445 126.233 288.445 127.052C288.445 127.863 288.63 128.492 288.998 128.939C289.37 129.385 289.893 129.609 290.567 129.609C291.032 129.609 291.438 129.501 291.784 129.285C292.134 129.065 292.411 128.753 292.616 128.347L293.196 128.604C292.954 129.125 292.605 129.527 292.147 129.81C291.689 130.092 291.166 130.234 290.578 130.234ZM288.2 127.236V126.655H292.962V127.236H288.2Z"
        fill="white" />
    <path d="M153.996 116.633L148.735 136.244L143.234 128.59L135.342 125.242L153.996 116.633Z"
        fill="#353F4E" />
    <path
        d="M62.5898 152.977C62.5898 142.941 70.7258 134.805 80.7619 134.805H119.987C130.023 134.805 138.159 142.941 138.159 152.977C138.159 163.013 130.023 171.149 119.987 171.149H80.7619C70.7258 171.149 62.5898 163.013 62.5898 152.977Z"
        fill="white" />
    <path
        d="M82.3128 157.326V149.287H82.9549V153.106L86.7791 149.287H87.6276L83.7811 153.15L87.9626 157.326H87.1029L82.9549 153.217V157.326H82.3128ZM87.7408 157.326V156.746C87.9678 156.787 88.139 156.775 88.2544 156.712C88.3698 156.645 88.4535 156.537 88.5056 156.388C88.5615 156.236 88.6061 156.051 88.6396 155.836C88.7029 155.463 88.7587 155.058 88.8071 154.619C88.8555 154.176 88.9001 153.682 88.9411 153.139C88.982 152.592 89.023 151.978 89.0639 151.297H93.0556V157.326H92.408V151.922H89.6892C89.6594 152.369 89.6259 152.802 89.5887 153.223C89.5552 153.643 89.518 154.043 89.477 154.423C89.4398 154.799 89.3989 155.143 89.3542 155.456C89.3133 155.765 89.2686 156.033 89.2202 156.26C89.1644 156.558 89.0881 156.798 88.9913 156.98C88.8983 157.159 88.755 157.278 88.5615 157.337C88.3679 157.397 88.0944 157.393 87.7408 157.326ZM99.2682 151.297V157.326H98.6373V152.374L95.1872 157.326H94.6233V151.297H95.2542V156.226L98.7043 151.297H99.2682ZM103.312 157.494C102.735 157.494 102.236 157.365 101.816 157.108C101.395 156.848 101.07 156.481 100.839 156.009C100.608 155.532 100.493 154.97 100.493 154.323C100.493 153.664 100.606 153.096 100.833 152.62C101.064 152.14 101.388 151.771 101.805 151.514C102.225 151.258 102.724 151.129 103.301 151.129C103.885 151.129 104.384 151.263 104.797 151.531C105.214 151.795 105.53 152.179 105.746 152.681C105.966 153.184 106.07 153.789 106.059 154.496H105.389V154.272C105.37 153.446 105.184 152.817 104.83 152.385C104.477 151.954 103.971 151.738 103.312 151.738C102.631 151.738 102.104 151.963 101.732 152.413C101.364 152.86 101.179 153.493 101.179 154.311C101.179 155.123 101.364 155.752 101.732 156.198C102.104 156.645 102.627 156.868 103.301 156.868C103.766 156.868 104.172 156.76 104.518 156.545C104.868 156.325 105.145 156.012 105.35 155.607L105.93 155.863C105.688 156.385 105.338 156.787 104.881 157.069C104.423 157.352 103.9 157.494 103.312 157.494ZM100.934 154.496V153.915H105.696V154.496H100.934ZM107.294 157.326V151.297H107.936V153.999H111.57V151.297H112.212V157.326H111.57V154.624H107.936V157.326H107.294ZM115.451 157.326V151.911H113.268V151.297H118.276V151.911H116.093V157.326H115.451Z"
        fill="#353F4E" />
    <circle cx="14.5143" cy="11.8424" r="3.47327" fill="#E86D64" />
    <circle cx="24.2408" cy="11.8424" r="3.47327" fill="#EEBD56" />
    <circle cx="33.9694" cy="11.8424" r="3.47327" fill="#58C84D" />
</svg>