<svg width="86" height="55" viewBox="0 0 86 55" fill="none" xmlns="http://www.w3.org/2000/svg">
    <path fillRule="evenodd" clipRule="evenodd"
        d="M36.1325 0.284915C35.9787 0.199252 35.9018 0.156421 35.8184 0.126204C35.7443 0.0993696 35.6665 0.0799837 35.5859 0.0683081C35.4953 0.0551605 35.4002 0.0551605 35.2101 0.0551605H30.9851C30.5185 0.0551605 30.2852 0.0551605 30.0664 0.124522C29.8728 0.185867 29.6883 0.286025 29.5259 0.417894C29.3424 0.566997 29.1994 0.77126 28.9134 1.17979L15.3535 20.5499C15.1144 20.8915 14.9949 21.0622 14.9271 21.2419C14.867 21.4011 14.8368 21.5646 14.838 21.7242C14.8394 21.9043 14.8956 22.0763 15.0082 22.4202L16.0489 25.6003C16.3735 26.5922 16.5358 27.0882 16.4031 27.4913C16.2871 27.8432 16.033 28.158 15.7005 28.3618C15.3197 28.5951 14.7571 28.5951 13.6319 28.5951H11.006C10.5394 28.5951 10.3061 28.5951 10.0873 28.6645C9.89371 28.7258 9.70921 28.826 9.54683 28.9579C9.36324 29.107 9.22025 29.3112 8.93426 29.7198L2.19719 39.3436C1.49836 40.3419 1.14895 40.841 1.13435 41.2474C1.12161 41.6023 1.26238 41.9207 1.52319 42.1271C1.82193 42.3634 2.39199 42.3634 3.5321 42.3634H11.4346C11.8851 42.3634 12.1104 42.3634 12.323 42.2981C12.511 42.2403 12.691 42.1458 12.8509 42.0209C13.0317 41.8797 13.1756 41.6859 13.4635 41.2982L17.8942 35.3306C18.1821 34.9429 18.3261 34.7491 18.5068 34.6079C18.6667 34.483 18.8467 34.3885 19.0347 34.3307C19.2473 34.2654 19.4726 34.2654 19.9231 34.2654H30.8484C31.5539 34.2654 31.9067 34.2654 32.1576 34.3982C32.3784 34.5152 32.5445 34.7023 32.6334 34.9343C32.7344 35.1979 32.6896 35.5448 32.5999 36.2387L32.0634 40.3901C31.9737 41.084 31.9289 41.4309 32.0299 41.6945C32.1188 41.9265 32.2849 42.1136 32.5057 42.2306C32.7566 42.3634 33.1093 42.3634 33.8149 42.3634H75.7196C76.4563 42.3634 76.8247 42.3634 77.1311 42.2223C77.4007 42.0981 77.6372 41.9 77.8066 41.6563C77.9993 41.3792 78.0637 41.0165 78.1927 40.2912L79.1034 35.1687C79.2323 34.4433 79.2968 34.0806 79.2027 33.8036C79.1199 33.5599 78.9539 33.3618 78.7284 33.2376C78.4721 33.0964 78.1038 33.0964 77.367 33.0964H63.4253C62.0712 33.0964 61.3942 33.0964 61.0859 32.8211C60.8176 32.5816 60.6973 32.2172 60.758 31.8286C60.8278 31.3821 61.3286 30.8486 62.3302 29.7817L83.7885 6.9234C83.9809 6.71846 84.077 6.61599 84.1525 6.50317C84.2194 6.40305 84.2741 6.29712 84.3151 6.18799C84.3614 6.06501 84.3841 5.93697 84.4297 5.68089L85.0712 2.07223C85.2002 1.34688 85.2646 0.984207 85.1705 0.707161C85.0877 0.463464 84.9217 0.265332 84.6963 0.141162C84.44 0 84.0716 0 83.3349 0H52.4163C51.6796 0 51.3112 0 51.0047 0.141162C50.7351 0.265332 50.4987 0.463464 50.3292 0.707161C50.1366 0.984207 50.0721 1.34688 49.9432 2.07223L49.0325 7.19477C48.9035 7.92012 48.8391 8.28279 48.9332 8.55984C49.016 8.80354 49.182 9.00167 49.4074 9.12584C49.6637 9.267 50.0321 9.267 50.7688 9.267H64.7105C66.0646 9.267 66.7417 9.267 67.0499 9.54229C67.3182 9.78185 67.4386 10.1462 67.3778 10.5348C67.3081 10.9813 66.8072 11.5148 65.8056 12.5817L48.3555 31.1704C47.1802 32.4224 46.5925 33.0484 46.101 33.1533C45.6745 33.2444 45.2638 33.1368 44.9961 32.8638C44.6875 32.5492 44.7104 31.7752 44.7561 30.2272L45.4554 6.54992C45.4668 6.16349 45.4725 5.97027 45.4238 5.80128C45.3807 5.65164 45.3066 5.51646 45.2057 5.40298C45.0916 5.27483 44.9312 5.18546 44.6103 5.00673L36.1325 0.284915ZM35.5628 11.7065C35.679 11.7065 35.7588 11.7963 35.744 11.9106L34.2462 23.5003C34.1484 24.2567 34.0996 24.6349 33.9098 24.9254C33.743 25.1808 33.503 25.3902 33.2263 25.5218C32.9116 25.6715 32.527 25.6715 31.7579 25.6715H28.6443C27.4671 25.6715 26.8785 25.6715 26.5777 25.4278C26.3152 25.2152 26.1779 24.888 26.1994 24.5263C26.224 24.1118 26.6001 23.6053 27.3522 22.5923L35.3529 11.8167C35.4034 11.7487 35.4837 11.7065 35.5628 11.7065Z"
        fill="#F1632B" />
    <path
        d="M0 42.8083L47.0016 52.8589C47.6703 53.0019 48.1396 52.0265 47.5249 51.7713C46.9189 51.5197 47.3662 50.5588 48.0326 50.6806L67.3577 54.2123C67.4248 54.2246 67.4583 54.2307 67.4924 54.235C67.5227 54.2388 67.5533 54.2415 67.5841 54.2432C67.6189 54.245 67.654 54.245 67.7243 54.245H73.7359C74.6532 54.245 75.1119 54.245 75.2796 54.2046C76.3985 53.9347 76.918 52.5635 76.1481 51.9122C76.0328 51.8146 75.6393 51.6425 74.8524 51.2983L67.7885 48.2089C67.4276 48.051 67.0309 48.5601 67.3123 48.82C67.5615 49.0501 67.2738 49.5098 66.9156 49.454L34.8984 44.4655C33.9988 44.3254 33.2852 45.4897 33.9261 46.0519C34.5642 46.6117 33.8596 47.7711 32.9614 47.6395L0 42.8083Z"
        fill="#F1632B" />
</svg>