<svg width="314" height="75" className="absolute top-[0] left-[0] z-[-1]" viewBox="0 0 314 75"
    fill="none" xmlns="http://www.w3.org/2000/svg">
    <g filter="url(#filter0_ii_766_4909)">
        <path fill-rule="evenodd" clip-rule="evenodd"
            d="M37.208 74.231L297.028 74.231C305.902 74.231 313.361 67.3901 313.361 58.6524L313.361 15.8383C313.361 7.39956 305.903 0.558594 297.028 0.558594L37.2082 0.558629C28.0077 0.558629 20.8751 7.3996 20.8751 15.8383L20.8749 51.677C20.8749 60.2371 6.06192 68.2494 1.77792 70.3876C1.07687 70.7375 0.630432 71.4451 0.630432 72.2287C0.630432 73.3345 1.52692 74.231 2.63278 74.231H37.208Z"
            fill="#FF8543" />
        <path fill-rule="evenodd" clip-rule="evenodd"
            d="M37.208 74.231L297.028 74.231C305.902 74.231 313.361 67.3901 313.361 58.6524L313.361 15.8383C313.361 7.39956 305.903 0.558594 297.028 0.558594L37.2082 0.558629C28.0077 0.558629 20.8751 7.3996 20.8751 15.8383L20.8749 51.677C20.8749 60.2371 6.06192 68.2494 1.77792 70.3876C1.07687 70.7375 0.630432 71.4451 0.630432 72.2287C0.630432 73.3345 1.52692 74.231 2.63278 74.231H37.208Z"
            fill="url(#paint0_linear_766_4909)" />
        <path fill-rule="evenodd" clip-rule="evenodd"
            d="M37.208 74.231L297.028 74.231C305.902 74.231 313.361 67.3901 313.361 58.6524L313.361 15.8383C313.361 7.39956 305.903 0.558594 297.028 0.558594L37.2082 0.558629C28.0077 0.558629 20.8751 7.3996 20.8751 15.8383L20.8749 51.677C20.8749 60.2371 6.06192 68.2494 1.77792 70.3876C1.07687 70.7375 0.630432 71.4451 0.630432 72.2287C0.630432 73.3345 1.52692 74.231 2.63278 74.231H37.208Z"
            fill="url(#paint1_linear_766_4909)" />
        <path fill-rule="evenodd" clip-rule="evenodd"
            d="M37.208 74.231L297.028 74.231C305.902 74.231 313.361 67.3901 313.361 58.6524L313.361 15.8383C313.361 7.39956 305.903 0.558594 297.028 0.558594L37.2082 0.558629C28.0077 0.558629 20.8751 7.3996 20.8751 15.8383L20.8749 51.677C20.8749 60.2371 6.06192 68.2494 1.77792 70.3876C1.07687 70.7375 0.630432 71.4451 0.630432 72.2287C0.630432 73.3345 1.52692 74.231 2.63278 74.231H37.208Z"
            fill="url(#paint2_linear_766_4909)" />
    </g>
    <defs>
        <filter id="filter0_ii_766_4909" x="0.630859" y="0.558594" width="312.73" height="73.6719"
            filterUnits="userSpaceOnUse" color-interpolation-filters="sRGB">
            <feFlood flood-opacity="0" result="BackgroundImageFix" />
            <feBlend mode="normal" in="SourceGraphic" in2="BackgroundImageFix" result="shape" />
            <feColorMatrix in="SourceAlpha" type="matrix"
                values="0 0 0 0 0 0 0 0 0 0 0 0 0 0 0 0 0 0 127 0" result="hardAlpha" />
            <feOffset />
            <feGaussianBlur stdDeviation="10.5795" />
            <feComposite in2="hardAlpha" operator="arithmetic" k2="-1" k3="1" />
            <feColorMatrix type="matrix"
                values="0 0 0 0 1 0 0 0 0 0.834337 0 0 0 0 0.492549 0 0 0 1 0" />
            <feBlend mode="normal" in2="shape" result="effect1_innerShadow_766_4909" />
            <feColorMatrix in="SourceAlpha" type="matrix"
                values="0 0 0 0 0 0 0 0 0 0 0 0 0 0 0 0 0 0 127 0" result="hardAlpha" />
            <feOffset />
            <feGaussianBlur stdDeviation="1.41171" />
            <feComposite in2="hardAlpha" operator="arithmetic" k2="-1" k3="1" />
            <feColorMatrix type="matrix"
                values="0 0 0 0 1 0 0 0 0 0.924806 0 0 0 0 0.810434 0 0 0 1 0" />
            <feBlend mode="normal" in2="effect1_innerShadow_766_4909"
                result="effect2_innerShadow_766_4909" />
        </filter>
        <linearGradient id="paint0_linear_766_4909" x1="294.323" y1="-8.81053" x2="265.105"
            y2="80.8024" gradientUnits="userSpaceOnUse">
            <stop stop-color="#FFBF67" />
            <stop offset="1" stop-color="#FFBF67" stop-opacity="0" />
        </linearGradient>
        <linearGradient id="paint1_linear_766_4909" x1="116.431" y1="-8.8106" x2="106.413"
            y2="74.4546" gradientUnits="userSpaceOnUse">
            <stop stop-color="#FC4A00" stop-opacity="0" />
            <stop offset="1" stop-color="#FC4A00" />
        </linearGradient>
        <linearGradient id="paint2_linear_766_4909" x1="76.7416" y1="28.052" x2="18.3947"
            y2="79.1621" gradientUnits="userSpaceOnUse">
            <stop stop-color="#F45800" stop-opacity="0" />
            <stop offset="1" stop-color="#F45800" />
        </linearGradient>
    </defs>
</svg>