<svg width="267" height="189" viewBox="0 0 267 189" fill="none" xmlns="http://www.w3.org/2000/svg">
    <circle cx="31.4428" cy="91.4809" r="29.1618" fill="#EDEDED" stroke="white"
        stroke-width="3.65952" />
    <path
        d="M23.1394 97.5029V86.9635H31.2123V97.5029H30.1364V87.9955H24.2153V97.5029H23.1394ZM33.2602 97.5029V86.9635H34.3361V91.7136H40.1621V86.9635H41.2307V97.5029H40.1621V92.7455H34.3361V97.5029H33.2602Z"
        fill="#353F4E" />
    <g filter="url(#filter0_ddd_766_4780)">
        <circle cx="81.8373" cy="91.4809" r="30.9916" fill="#EDEDED" />
        <circle cx="81.8373" cy="91.4809" r="29.1618" stroke="white" stroke-width="3.65952" />
    </g>
    <path
        d="M74.304 97.5029V86.9635H78.3734C78.9638 86.9635 79.4786 87.0855 79.9178 87.3295C80.3569 87.5734 80.6985 87.9028 80.9424 88.3175C81.1864 88.7274 81.3084 89.1812 81.3084 89.6789C81.3084 90.2449 81.1571 90.7499 80.8546 91.1939C80.5521 91.6331 80.1471 91.938 79.6396 92.1088L79.625 91.7502C80.3081 91.9453 80.8448 92.2869 81.2352 92.7748C81.6255 93.2628 81.8207 93.8532 81.8207 94.546C81.8207 95.156 81.6914 95.6829 81.4328 96.1269C81.1742 96.5661 80.8107 96.9052 80.3423 97.1443C79.8738 97.3834 79.3298 97.5029 78.7101 97.5029H74.304ZM75.3873 96.4709H78.4466C78.876 96.4709 79.2615 96.3953 79.603 96.2441C79.9446 96.0879 80.213 95.8683 80.4081 95.5853C80.6082 95.3023 80.7082 94.9608 80.7082 94.5607C80.7082 94.1703 80.6179 93.819 80.4374 93.5067C80.2569 93.1945 80.0105 92.9456 79.6982 92.7602C79.3908 92.5699 79.0395 92.4747 78.6442 92.4747H75.3873V96.4709ZM75.3873 91.4574H78.3661C78.7028 91.4574 79.0102 91.3818 79.2883 91.2305C79.5664 91.0744 79.786 90.8621 79.947 90.5937C80.1129 90.3254 80.1959 90.0155 80.1959 89.6642C80.1959 89.1665 80.0227 88.7615 79.6762 88.4493C79.3347 88.137 78.898 87.9808 78.3661 87.9808H75.3873V91.4574ZM85.7986 97.5029V87.9955H82.1171V86.9635H90.556V87.9955H86.8745V97.5029H85.7986Z"
        fill="#353F4E" />
    <g filter="url(#filter1_ddd_766_4780)">
        <circle cx="132.232" cy="91.4809" r="30.9916" fill="#EDEDED" />
        <circle cx="132.232" cy="91.4809" r="29.1618" stroke="white" stroke-width="3.65952" />
    </g>
    <path
        d="M127.415 97.7225C126.366 97.7225 125.48 97.4907 124.758 97.0272C124.036 96.5588 123.489 95.9123 123.118 95.0876C122.748 94.263 122.562 93.3116 122.562 92.2332C122.562 91.1549 122.748 90.2034 123.118 89.3788C123.489 88.5542 124.036 87.9101 124.758 87.4466C125.48 86.9781 126.366 86.7439 127.415 86.7439C128.639 86.7439 129.64 87.0586 130.415 87.6881C131.191 88.3126 131.723 89.1519 132.011 90.2058L130.913 90.4913C130.689 89.6569 130.286 88.9958 129.706 88.5078C129.125 88.0199 128.361 87.7759 127.415 87.7759C126.59 87.7759 125.905 87.9638 125.358 88.3395C124.812 88.7152 124.399 89.2397 124.121 89.9131C123.848 90.5816 123.706 91.3549 123.697 92.2332C123.692 93.1115 123.826 93.8849 124.099 94.5534C124.377 95.2218 124.792 95.7464 125.343 96.1269C125.9 96.5027 126.59 96.6905 127.415 96.6905C128.361 96.6905 129.125 96.4465 129.706 95.9586C130.286 95.4658 130.689 94.8046 130.913 93.9751L132.011 94.2606C131.723 95.3145 131.191 96.1562 130.415 96.7857C129.64 97.4102 128.639 97.7225 127.415 97.7225ZM133.626 97.5029V86.9635H137.695C137.798 86.9635 137.912 86.9684 138.039 86.9781C138.171 86.983 138.303 86.9977 138.435 87.0221C138.986 87.105 139.452 87.2977 139.832 87.6003C140.218 87.8979 140.508 88.2736 140.703 88.7274C140.903 89.1812 141.004 89.6837 141.004 90.2351C141.004 90.7816 140.903 91.2817 140.703 91.7355C140.503 92.1893 140.211 92.5675 139.825 92.87C139.445 93.1676 138.981 93.3579 138.435 93.4409C138.303 93.4604 138.171 93.475 138.039 93.4848C137.912 93.4945 137.798 93.4994 137.695 93.4994H134.702V97.5029H133.626ZM134.702 92.4747H137.666C137.754 92.4747 137.856 92.4699 137.973 92.4601C138.091 92.4503 138.205 92.4333 138.317 92.4089C138.679 92.3308 138.974 92.182 139.203 91.9624C139.437 91.7428 139.61 91.4818 139.723 91.1793C139.84 90.8768 139.898 90.562 139.898 90.2351C139.898 89.9082 139.84 89.5935 139.723 89.291C139.61 88.9836 139.437 88.7201 139.203 88.5005C138.974 88.2809 138.679 88.1321 138.317 88.054C138.205 88.0296 138.091 88.015 137.973 88.0101C137.856 88.0004 137.754 87.9955 137.666 87.9955H134.702V92.4747Z"
        fill="#353F4E" />
    <g filter="url(#filter2_ddd_766_4780)">
        <circle cx="182.628" cy="91.4809" r="30.9916" fill="#EDEDED" />
        <circle cx="182.628" cy="91.4809" r="29.1618" stroke="white" stroke-width="3.65952" />
    </g>
    <path
        d="M180.94 97.5029V92.5553L181.24 93.0164C180.903 93.2554 180.491 93.4506 180.003 93.6019C179.515 93.7483 178.964 93.8214 178.349 93.8214C177.437 93.8214 176.705 93.6531 176.153 93.3164C175.607 92.9798 175.212 92.5162 174.968 91.9258C174.724 91.3305 174.602 90.6499 174.602 89.8838V86.9635H175.685V89.5105C175.685 89.9985 175.731 90.4425 175.824 90.8426C175.917 91.2427 176.07 91.5867 176.285 91.8746C176.5 92.1625 176.785 92.3845 177.141 92.5406C177.498 92.6919 177.937 92.7675 178.459 92.7675C179.108 92.7675 179.666 92.6699 180.135 92.4747C180.603 92.2747 180.947 92.06 181.167 91.8307L180.94 92.6943V86.9635H182.016V97.5029H180.94ZM186.868 97.5029V87.9955H183.187V86.9635H191.626V87.9955H187.944V97.5029H186.868Z"
        fill="#353F4E" />
    <g filter="url(#filter3_ddi_766_4780)">
        <circle cx="233.023" cy="91.4809" r="30.9916" fill="#F1632B" />
        <circle cx="233.023" cy="91.4809" r="30.9916" fill="url(#paint0_linear_766_4780)" />
        <circle cx="233.023" cy="91.4809" r="29.1618" stroke="#F1632B" stroke-width="3.65952" />
        <circle cx="233.023" cy="91.4809" r="29.1618" stroke="url(#paint1_linear_766_4780)"
            stroke-width="3.65952" />
    </g>
    <path
        d="M224.142 97.5029V86.9635H232.837V97.5029H230.846V88.8225H226.132V97.5029H224.142ZM237.336 97.5029V88.8225H234.013V86.9635H242.65V88.8225H239.327V97.5029H237.336Z"
        fill="white" />
    <path
        d="M24.3546 40.2646C24.3546 30.8166 24.3561 23.8015 25.0805 18.413C25.8023 13.0449 27.2299 9.39674 30.0062 6.62045C32.7825 3.84417 36.4306 2.41653 41.7988 1.6948C47.1872 0.970338 54.2024 0.968842 63.6504 0.968842H200.816C210.264 0.968842 217.279 0.970338 222.667 1.6948C228.036 2.41653 231.684 3.84417 234.46 6.62045C237.236 9.39674 238.664 13.0449 239.386 18.413C240.11 23.8015 240.112 30.8167 240.112 40.2646V171.994H24.3546V40.2646Z"
        stroke="url(#paint2_linear_766_4780)" stroke-width="1.40839" />
    <path
        d="M105.592 24.9541V16.3141H108.928C109.012 16.3141 109.106 16.3181 109.21 16.3261C109.318 16.3301 109.426 16.3421 109.534 16.3621C109.986 16.4301 110.368 16.5881 110.68 16.8361C110.996 17.0801 111.234 17.3881 111.394 17.7601C111.558 18.1321 111.64 18.5441 111.64 18.9961C111.64 19.4441 111.558 19.8541 111.394 20.2261C111.23 20.5981 110.99 20.9081 110.674 21.1561C110.362 21.4001 109.982 21.5561 109.534 21.6241C109.426 21.6401 109.318 21.6521 109.21 21.6601C109.106 21.6681 109.012 21.6721 108.928 21.6721H106.474V24.9541H105.592ZM106.474 20.8321H108.904C108.976 20.8321 109.06 20.8281 109.156 20.8201C109.252 20.8121 109.346 20.7981 109.438 20.7781C109.734 20.7141 109.976 20.5921 110.164 20.4121C110.356 20.2321 110.498 20.0181 110.59 19.7701C110.686 19.5221 110.734 19.2641 110.734 18.9961C110.734 18.7281 110.686 18.4701 110.59 18.2221C110.498 17.9701 110.356 17.7541 110.164 17.5741C109.976 17.3941 109.734 17.2721 109.438 17.2081C109.346 17.1881 109.252 17.1761 109.156 17.1721C109.06 17.1641 108.976 17.1601 108.904 17.1601H106.474V20.8321ZM114.688 25.1341C114.2 25.1341 113.79 25.0461 113.458 24.8701C113.13 24.6941 112.884 24.4601 112.72 24.1681C112.556 23.8761 112.474 23.5581 112.474 23.2141C112.474 22.8621 112.544 22.5621 112.684 22.3141C112.828 22.0621 113.022 21.8561 113.266 21.6961C113.514 21.5361 113.8 21.4141 114.124 21.3301C114.452 21.2501 114.814 21.1801 115.21 21.1201C115.61 21.0561 116 21.0021 116.38 20.9581C116.764 20.9101 117.1 20.8641 117.388 20.8201L117.076 21.0121C117.088 20.3721 116.964 19.8981 116.704 19.5901C116.444 19.2821 115.992 19.1281 115.348 19.1281C114.904 19.1281 114.528 19.2281 114.22 19.4281C113.916 19.6281 113.702 19.9441 113.578 20.3761L112.72 20.1241C112.868 19.5441 113.166 19.0941 113.614 18.7741C114.062 18.4541 114.644 18.2941 115.36 18.2941C115.952 18.2941 116.454 18.4061 116.866 18.6301C117.282 18.8501 117.576 19.1701 117.748 19.5901C117.828 19.7781 117.88 19.9881 117.904 20.2201C117.928 20.4521 117.94 20.6881 117.94 20.9281V24.9541H117.154V23.3281L117.382 23.4241C117.162 23.9801 116.82 24.4041 116.356 24.6961C115.892 24.9881 115.336 25.1341 114.688 25.1341ZM114.79 24.3721C115.202 24.3721 115.562 24.2981 115.87 24.1501C116.178 24.0021 116.426 23.8001 116.614 23.5441C116.802 23.2841 116.924 22.9921 116.98 22.6681C117.028 22.4601 117.054 22.2321 117.058 21.9841C117.062 21.7321 117.064 21.5441 117.064 21.4201L117.4 21.5941C117.1 21.6341 116.774 21.6741 116.422 21.7141C116.074 21.7541 115.73 21.8001 115.39 21.8521C115.054 21.9041 114.75 21.9661 114.478 22.0381C114.294 22.0901 114.116 22.1641 113.944 22.2601C113.772 22.3521 113.63 22.4761 113.518 22.6321C113.41 22.7881 113.356 22.9821 113.356 23.2141C113.356 23.4021 113.402 23.5841 113.494 23.7601C113.59 23.9361 113.742 24.0821 113.95 24.1981C114.162 24.3141 114.442 24.3721 114.79 24.3721ZM122.1 25.1401C121.496 25.1361 120.978 25.0041 120.546 24.7441C120.114 24.4841 119.778 24.0961 119.538 23.5801C119.302 23.0641 119.174 22.4201 119.154 21.6481C119.142 21.3081 119.15 20.9381 119.178 20.5381C119.206 20.1341 119.25 19.7501 119.31 19.3861C119.37 19.0221 119.442 18.7261 119.526 18.4981C119.63 18.2021 119.778 17.9261 119.97 17.6701C120.166 17.4101 120.392 17.1981 120.648 17.0341C120.896 16.8661 121.176 16.7361 121.488 16.6441C121.804 16.5481 122.132 16.4741 122.472 16.4221C122.816 16.3701 123.156 16.3241 123.492 16.2841C123.832 16.2441 124.146 16.1941 124.434 16.1341L124.53 16.9321C124.31 16.9761 124.05 17.0161 123.75 17.0521C123.45 17.0881 123.136 17.1321 122.808 17.1841C122.48 17.2321 122.166 17.2981 121.866 17.3821C121.566 17.4661 121.31 17.5761 121.098 17.7121C120.774 17.9081 120.524 18.2041 120.348 18.6001C120.176 18.9961 120.07 19.4501 120.03 19.9621C120.278 19.5741 120.606 19.2821 121.014 19.0861C121.426 18.8901 121.872 18.7921 122.352 18.7921C122.936 18.7921 123.438 18.9261 123.858 19.1941C124.282 19.4621 124.608 19.8341 124.836 20.3101C125.064 20.7861 125.178 21.3321 125.178 21.9481C125.178 22.5921 125.052 23.1541 124.8 23.6341C124.552 24.1141 124.198 24.4861 123.738 24.7501C123.278 25.0101 122.732 25.1401 122.1 25.1401ZM122.166 24.2941C122.846 24.2941 123.362 24.0821 123.714 23.6581C124.07 23.2341 124.248 22.6701 124.248 21.9661C124.248 21.2461 124.064 20.6781 123.696 20.2621C123.332 19.8461 122.818 19.6381 122.154 19.6381C121.49 19.6381 120.98 19.8461 120.624 20.2621C120.268 20.6781 120.09 21.2461 120.09 21.9661C120.09 22.6861 120.268 23.2541 120.624 23.6701C120.98 24.0861 121.494 24.2941 122.166 24.2941ZM129.204 25.1341C128.56 25.1341 128.01 24.9881 127.554 24.6961C127.098 24.4041 126.748 24.0001 126.504 23.4841C126.26 22.9681 126.138 22.3761 126.138 21.7081C126.138 21.0281 126.262 20.4321 126.51 19.9201C126.758 19.4081 127.11 19.0101 127.566 18.7261C128.026 18.4381 128.572 18.2941 129.204 18.2941C129.852 18.2941 130.404 18.4401 130.86 18.7321C131.32 19.0201 131.67 19.4221 131.91 19.9381C132.154 20.4501 132.276 21.0401 132.276 21.7081C132.276 22.3881 132.154 22.9861 131.91 23.5021C131.666 24.0141 131.314 24.4141 130.854 24.7021C130.394 24.9901 129.844 25.1341 129.204 25.1341ZM129.204 24.2881C129.924 24.2881 130.46 24.0501 130.812 23.5741C131.164 23.0941 131.34 22.4721 131.34 21.7081C131.34 20.9241 131.162 20.3001 130.806 19.8361C130.454 19.3721 129.92 19.1401 129.204 19.1401C128.72 19.1401 128.32 19.2501 128.004 19.4701C127.692 19.6861 127.458 19.9881 127.302 20.3761C127.15 20.7601 127.074 21.2041 127.074 21.7081C127.074 22.4881 127.254 23.1141 127.614 23.5861C127.974 24.0541 128.504 24.2881 129.204 24.2881ZM135.194 24.9541V19.2901H132.896V18.4741H138.374V19.2901H136.076V24.9541H135.194ZM141.137 25.1341C140.649 25.1341 140.239 25.0461 139.907 24.8701C139.579 24.6941 139.333 24.4601 139.169 24.1681C139.005 23.8761 138.923 23.5581 138.923 23.2141C138.923 22.8621 138.993 22.5621 139.133 22.3141C139.277 22.0621 139.471 21.8561 139.715 21.6961C139.963 21.5361 140.249 21.4141 140.573 21.3301C140.901 21.2501 141.263 21.1801 141.659 21.1201C142.059 21.0561 142.449 21.0021 142.829 20.9581C143.213 20.9101 143.549 20.8641 143.837 20.8201L143.525 21.0121C143.537 20.3721 143.413 19.8981 143.153 19.5901C142.893 19.2821 142.441 19.1281 141.797 19.1281C141.353 19.1281 140.977 19.2281 140.669 19.4281C140.365 19.6281 140.151 19.9441 140.027 20.3761L139.169 20.1241C139.317 19.5441 139.615 19.0941 140.063 18.7741C140.511 18.4541 141.093 18.2941 141.809 18.2941C142.401 18.2941 142.903 18.4061 143.315 18.6301C143.731 18.8501 144.025 19.1701 144.197 19.5901C144.277 19.7781 144.329 19.9881 144.353 20.2201C144.377 20.4521 144.389 20.6881 144.389 20.9281V24.9541H143.603V23.3281L143.831 23.4241C143.611 23.9801 143.269 24.4041 142.805 24.6961C142.341 24.9881 141.785 25.1341 141.137 25.1341ZM141.239 24.3721C141.651 24.3721 142.011 24.2981 142.319 24.1501C142.627 24.0021 142.875 23.8001 143.063 23.5441C143.251 23.2841 143.373 22.9921 143.429 22.6681C143.477 22.4601 143.503 22.2321 143.507 21.9841C143.511 21.7321 143.513 21.5441 143.513 21.4201L143.849 21.5941C143.549 21.6341 143.223 21.6741 142.871 21.7141C142.523 21.7541 142.179 21.8001 141.839 21.8521C141.503 21.9041 141.199 21.9661 140.927 22.0381C140.743 22.0901 140.565 22.1641 140.393 22.2601C140.221 22.3521 140.079 22.4761 139.967 22.6321C139.859 22.7881 139.805 22.9821 139.805 23.2141C139.805 23.4021 139.851 23.5841 139.943 23.7601C140.039 23.9361 140.191 24.0821 140.399 24.1981C140.611 24.3141 140.891 24.3721 141.239 24.3721ZM148.693 25.1341C148.061 25.1341 147.513 24.9941 147.049 24.7141C146.589 24.4341 146.231 24.0401 145.975 23.5321C145.719 23.0241 145.591 22.4281 145.591 21.7441C145.591 21.0361 145.717 20.4241 145.969 19.9081C146.221 19.3921 146.575 18.9941 147.031 18.7141C147.491 18.4341 148.033 18.2941 148.657 18.2941C149.297 18.2941 149.843 18.4421 150.295 18.7381C150.747 19.0301 151.089 19.4501 151.321 19.9981C151.553 20.5461 151.659 21.2001 151.639 21.9601H150.739V21.6481C150.723 20.8081 150.541 20.1741 150.193 19.7461C149.849 19.3181 149.345 19.1041 148.681 19.1041C147.985 19.1041 147.451 19.3301 147.079 19.7821C146.711 20.2341 146.527 20.8781 146.527 21.7141C146.527 22.5301 146.711 23.1641 147.079 23.6161C147.451 24.0641 147.977 24.2881 148.657 24.2881C149.121 24.2881 149.525 24.1821 149.869 23.9701C150.217 23.7541 150.491 23.4441 150.691 23.0401L151.513 23.3581C151.257 23.9221 150.879 24.3601 150.379 24.6721C149.883 24.9801 149.321 25.1341 148.693 25.1341ZM146.215 21.9601V21.2221H151.165V21.9601H146.215ZM152.789 24.9541V18.4741H153.575L156.101 23.7781L158.633 18.4741H159.413V24.9541H158.561V20.3581L156.383 24.9541H155.825L153.647 20.3581V24.9541H152.789Z"
        fill="white" />
    <path
        d="M10.5119 179.476V170.836H17.1299V179.476H16.2479V171.682H11.3939V179.476H10.5119ZM18.2088 179.476V178.702C18.4488 178.746 18.6308 178.736 18.7548 178.672C18.8828 178.604 18.9768 178.492 19.0368 178.336C19.0968 178.176 19.1468 177.978 19.1868 177.742C19.2508 177.35 19.3088 176.918 19.3608 176.446C19.4128 175.974 19.4588 175.454 19.4988 174.886C19.5428 174.314 19.5868 173.684 19.6308 172.996H24.0348V179.476H23.1588V173.842H20.4468C20.4188 174.266 20.3868 174.688 20.3508 175.108C20.3148 175.528 20.2768 175.932 20.2368 176.32C20.2008 176.704 20.1608 177.058 20.1168 177.382C20.0728 177.706 20.0268 177.986 19.9788 178.222C19.9068 178.578 19.8108 178.862 19.6908 179.074C19.5748 179.286 19.4008 179.426 19.1688 179.494C18.9368 179.562 18.6168 179.556 18.2088 179.476ZM27.5651 179.656C27.0771 179.656 26.6671 179.568 26.3351 179.392C26.0071 179.216 25.7611 178.982 25.5971 178.69C25.4331 178.398 25.3511 178.08 25.3511 177.736C25.3511 177.384 25.4211 177.084 25.5611 176.836C25.7051 176.584 25.8991 176.378 26.1431 176.218C26.3911 176.058 26.6771 175.936 27.0011 175.852C27.3291 175.772 27.6911 175.702 28.0871 175.642C28.4871 175.578 28.8771 175.524 29.2571 175.48C29.6411 175.432 29.9771 175.386 30.2651 175.342L29.9531 175.534C29.9651 174.894 29.8411 174.42 29.5811 174.112C29.3211 173.804 28.8691 173.65 28.2251 173.65C27.7811 173.65 27.4051 173.75 27.0971 173.95C26.7931 174.15 26.5791 174.466 26.4551 174.898L25.5971 174.646C25.7451 174.066 26.0431 173.616 26.4911 173.296C26.9391 172.976 27.5211 172.816 28.2371 172.816C28.8291 172.816 29.3311 172.928 29.7431 173.152C30.1591 173.372 30.4531 173.692 30.6251 174.112C30.7051 174.3 30.7571 174.51 30.7811 174.742C30.8051 174.974 30.8171 175.21 30.8171 175.45V179.476H30.0311V177.85L30.2591 177.946C30.0391 178.502 29.6971 178.926 29.2331 179.218C28.7691 179.51 28.2131 179.656 27.5651 179.656ZM27.6671 178.894C28.0791 178.894 28.4391 178.82 28.7471 178.672C29.0551 178.524 29.3031 178.322 29.4911 178.066C29.6791 177.806 29.8011 177.514 29.8571 177.19C29.9051 176.982 29.9311 176.754 29.9351 176.506C29.9391 176.254 29.9411 176.066 29.9411 175.942L30.2771 176.116C29.9771 176.156 29.6511 176.196 29.2991 176.236C28.9511 176.276 28.6071 176.322 28.2671 176.374C27.9311 176.426 27.6271 176.488 27.3551 176.56C27.1711 176.612 26.9931 176.686 26.8211 176.782C26.6491 176.874 26.5071 176.998 26.3951 177.154C26.2871 177.31 26.2331 177.504 26.2331 177.736C26.2331 177.924 26.2791 178.106 26.3711 178.282C26.4671 178.458 26.6191 178.604 26.8271 178.72C27.0391 178.836 27.3191 178.894 27.6671 178.894ZM32.3731 179.476V172.996H33.2551V175.81H36.9091V172.996H37.7911V179.476H36.9091V176.656H33.2551V179.476H32.3731Z"
        fill="white" />
    <path
        d="M208.315 179.476V170.836H211.651C211.735 170.836 211.829 170.84 211.933 170.848C212.041 170.852 212.149 170.864 212.257 170.884C212.709 170.952 213.091 171.11 213.403 171.358C213.719 171.602 213.957 171.91 214.117 172.282C214.281 172.654 214.363 173.066 214.363 173.518C214.363 173.966 214.281 174.376 214.117 174.748C213.953 175.12 213.713 175.43 213.397 175.678C213.085 175.922 212.705 176.078 212.257 176.146C212.149 176.162 212.041 176.174 211.933 176.182C211.829 176.19 211.735 176.194 211.651 176.194H209.197V179.476H208.315ZM209.197 175.354H211.627C211.699 175.354 211.783 175.35 211.879 175.342C211.975 175.334 212.069 175.32 212.161 175.3C212.457 175.236 212.699 175.114 212.887 174.934C213.079 174.754 213.221 174.54 213.313 174.292C213.409 174.044 213.457 173.786 213.457 173.518C213.457 173.25 213.409 172.992 213.313 172.744C213.221 172.492 213.079 172.276 212.887 172.096C212.699 171.916 212.457 171.794 212.161 171.73C212.069 171.71 211.975 171.698 211.879 171.694C211.783 171.686 211.699 171.682 211.627 171.682H209.197V175.354ZM218.299 179.656C217.667 179.656 217.119 179.516 216.655 179.236C216.195 178.956 215.837 178.562 215.581 178.054C215.325 177.546 215.197 176.95 215.197 176.266C215.197 175.558 215.323 174.946 215.575 174.43C215.827 173.914 216.181 173.516 216.637 173.236C217.097 172.956 217.639 172.816 218.263 172.816C218.903 172.816 219.449 172.964 219.901 173.26C220.353 173.552 220.695 173.972 220.927 174.52C221.159 175.068 221.265 175.722 221.245 176.482H220.345V176.17C220.329 175.33 220.147 174.696 219.799 174.268C219.455 173.84 218.951 173.626 218.287 173.626C217.591 173.626 217.057 173.852 216.685 174.304C216.317 174.756 216.133 175.4 216.133 176.236C216.133 177.052 216.317 177.686 216.685 178.138C217.057 178.586 217.583 178.81 218.263 178.81C218.727 178.81 219.131 178.704 219.475 178.492C219.823 178.276 220.097 177.966 220.297 177.562L221.119 177.88C220.863 178.444 220.485 178.882 219.985 179.194C219.489 179.502 218.927 179.656 218.299 179.656ZM215.821 176.482V175.744H220.771V176.482H215.821ZM224.676 179.656C224.024 179.656 223.454 179.514 222.966 179.23C222.482 178.942 222.1 178.544 221.82 178.036L222.528 177.586C222.764 177.986 223.058 178.29 223.41 178.498C223.762 178.706 224.166 178.81 224.622 178.81C225.098 178.81 225.48 178.7 225.768 178.48C226.056 178.26 226.2 177.958 226.2 177.574C226.2 177.31 226.138 177.1 226.014 176.944C225.894 176.788 225.71 176.676 225.462 176.608C225.218 176.54 224.912 176.506 224.544 176.506H223.776V175.75H224.532C224.98 175.75 225.34 175.67 225.612 175.51C225.888 175.346 226.026 175.09 226.026 174.742C226.026 174.374 225.888 174.102 225.612 173.926C225.34 173.746 225.014 173.656 224.634 173.656C224.25 173.656 223.886 173.736 223.542 173.896C223.202 174.052 222.916 174.254 222.684 174.502L222.12 173.908C222.444 173.552 222.822 173.282 223.254 173.098C223.69 172.91 224.172 172.816 224.7 172.816C225.116 172.816 225.492 172.89 225.828 173.038C226.168 173.182 226.436 173.394 226.632 173.674C226.832 173.954 226.932 174.29 226.932 174.682C226.932 175.05 226.842 175.368 226.662 175.636C226.486 175.904 226.236 176.126 225.912 176.302L225.864 175.972C226.144 176.024 226.376 176.136 226.56 176.308C226.744 176.48 226.88 176.686 226.968 176.926C227.056 177.166 227.1 177.41 227.1 177.658C227.1 178.07 226.992 178.426 226.776 178.726C226.564 179.022 226.274 179.252 225.906 179.416C225.542 179.576 225.132 179.656 224.676 179.656ZM229.348 182.356L230.602 178.954L230.62 179.962L227.782 172.996H228.718L231.046 178.822H230.662L232.81 172.996H233.71L230.23 182.356H229.348ZM233.918 179.476V178.702C234.158 178.746 234.34 178.736 234.464 178.672C234.592 178.604 234.686 178.492 234.746 178.336C234.806 178.176 234.856 177.978 234.896 177.742C234.96 177.35 235.018 176.918 235.07 176.446C235.122 175.974 235.168 175.454 235.208 174.886C235.252 174.314 235.296 173.684 235.34 172.996H239.744V179.476H238.868V173.842H236.156C236.128 174.266 236.096 174.688 236.06 175.108C236.024 175.528 235.986 175.932 235.946 176.32C235.91 176.704 235.87 177.058 235.826 177.382C235.782 177.706 235.736 177.986 235.688 178.222C235.616 178.578 235.52 178.862 235.4 179.074C235.284 179.286 235.11 179.426 234.878 179.494C234.646 179.562 234.326 179.556 233.918 179.476ZM241.426 179.476L241.414 172.996H242.302V175.438H243.82C244.008 175.438 244.192 175.442 244.372 175.45C244.556 175.458 244.718 175.474 244.858 175.498C245.178 175.558 245.462 175.664 245.71 175.816C245.962 175.968 246.158 176.178 246.298 176.446C246.442 176.714 246.514 177.05 246.514 177.454C246.514 178.01 246.37 178.448 246.082 178.768C245.798 179.088 245.438 179.296 245.002 179.392C244.838 179.428 244.66 179.452 244.468 179.464C244.276 179.472 244.086 179.476 243.898 179.476H241.426ZM242.302 178.72H243.862C243.998 178.72 244.15 178.716 244.318 178.708C244.486 178.7 244.634 178.678 244.762 178.642C244.974 178.582 245.166 178.462 245.338 178.282C245.514 178.098 245.602 177.822 245.602 177.454C245.602 177.09 245.518 176.816 245.35 176.632C245.182 176.444 244.958 176.32 244.678 176.26C244.554 176.232 244.42 176.214 244.276 176.206C244.132 176.198 243.994 176.194 243.862 176.194H242.302V178.72ZM249.588 179.476V173.812H247.29V172.996H252.768V173.812H250.47V179.476H249.588ZM255.532 179.656C255.044 179.656 254.634 179.568 254.302 179.392C253.974 179.216 253.728 178.982 253.564 178.69C253.4 178.398 253.318 178.08 253.318 177.736C253.318 177.384 253.388 177.084 253.528 176.836C253.672 176.584 253.866 176.378 254.11 176.218C254.358 176.058 254.644 175.936 254.968 175.852C255.296 175.772 255.658 175.702 256.054 175.642C256.454 175.578 256.844 175.524 257.224 175.48C257.608 175.432 257.944 175.386 258.232 175.342L257.92 175.534C257.932 174.894 257.808 174.42 257.548 174.112C257.288 173.804 256.836 173.65 256.192 173.65C255.748 173.65 255.372 173.75 255.064 173.95C254.76 174.15 254.546 174.466 254.422 174.898L253.564 174.646C253.712 174.066 254.01 173.616 254.458 173.296C254.906 172.976 255.488 172.816 256.204 172.816C256.796 172.816 257.298 172.928 257.71 173.152C258.126 173.372 258.42 173.692 258.592 174.112C258.672 174.3 258.724 174.51 258.748 174.742C258.772 174.974 258.784 175.21 258.784 175.45V179.476H257.998V177.85L258.226 177.946C258.006 178.502 257.664 178.926 257.2 179.218C256.736 179.51 256.18 179.656 255.532 179.656ZM255.634 178.894C256.046 178.894 256.406 178.82 256.714 178.672C257.022 178.524 257.27 178.322 257.458 178.066C257.646 177.806 257.768 177.514 257.824 177.19C257.872 176.982 257.898 176.754 257.902 176.506C257.906 176.254 257.908 176.066 257.908 175.942L258.244 176.116C257.944 176.156 257.618 176.196 257.266 176.236C256.918 176.276 256.574 176.322 256.234 176.374C255.898 176.426 255.594 176.488 255.322 176.56C255.138 176.612 254.96 176.686 254.788 176.782C254.616 176.874 254.474 176.998 254.362 177.154C254.254 177.31 254.2 177.504 254.2 177.736C254.2 177.924 254.246 178.106 254.338 178.282C254.434 178.458 254.586 178.604 254.794 178.72C255.006 178.836 255.286 178.894 255.634 178.894ZM262.104 179.476V173.812H259.806V172.996H265.284V173.812H262.986V179.476H262.104Z"
        fill="white" />
    <defs>
        <filter id="filter0_ddd_766_4780" x="42.9167" y="60.4893" width="69.9114" height="61.9834"
            filterUnits="userSpaceOnUse" color-interpolation-filters="sRGB">
            <feFlood flood-opacity="0" result="BackgroundImageFix" />
            <feColorMatrix in="SourceAlpha" type="matrix"
                values="0 0 0 0 0 0 0 0 0 0 0 0 0 0 0 0 0 0 127 0" result="hardAlpha" />
            <feOffset dx="-1.21984" />
            <feComposite in2="hardAlpha" operator="out" />
            <feColorMatrix type="matrix" values="0 0 0 0 0 0 0 0 0 0 0 0 0 0 0 0 0 0 0.05 0" />
            <feBlend mode="normal" in2="BackgroundImageFix" result="effect1_dropShadow_766_4780" />
            <feColorMatrix in="SourceAlpha" type="matrix"
                values="0 0 0 0 0 0 0 0 0 0 0 0 0 0 0 0 0 0 127 0" result="hardAlpha" />
            <feOffset dx="-4.26944" />
            <feComposite in2="hardAlpha" operator="out" />
            <feColorMatrix type="matrix" values="0 0 0 0 0 0 0 0 0 0 0 0 0 0 0 0 0 0 0.01 0" />
            <feBlend mode="normal" in2="effect1_dropShadow_766_4780"
                result="effect2_dropShadow_766_4780" />
            <feColorMatrix in="SourceAlpha" type="matrix"
                values="0 0 0 0 0 0 0 0 0 0 0 0 0 0 0 0 0 0 127 0" result="hardAlpha" />
            <feOffset dx="-7.92897" />
            <feComposite in2="hardAlpha" operator="out" />
            <feColorMatrix type="matrix" values="0 0 0 0 0 0 0 0 0 0 0 0 0 0 0 0 0 0 0.01 0" />
            <feBlend mode="normal" in2="effect2_dropShadow_766_4780"
                result="effect3_dropShadow_766_4780" />
            <feBlend mode="normal" in="SourceGraphic" in2="effect3_dropShadow_766_4780"
                result="shape" />
        </filter>
        <filter id="filter1_ddd_766_4780" x="93.3113" y="60.4893" width="69.9114" height="61.9834"
            filterUnits="userSpaceOnUse" color-interpolation-filters="sRGB">
            <feFlood flood-opacity="0" result="BackgroundImageFix" />
            <feColorMatrix in="SourceAlpha" type="matrix"
                values="0 0 0 0 0 0 0 0 0 0 0 0 0 0 0 0 0 0 127 0" result="hardAlpha" />
            <feOffset dx="-1.21984" />
            <feComposite in2="hardAlpha" operator="out" />
            <feColorMatrix type="matrix" values="0 0 0 0 0 0 0 0 0 0 0 0 0 0 0 0 0 0 0.05 0" />
            <feBlend mode="normal" in2="BackgroundImageFix" result="effect1_dropShadow_766_4780" />
            <feColorMatrix in="SourceAlpha" type="matrix"
                values="0 0 0 0 0 0 0 0 0 0 0 0 0 0 0 0 0 0 127 0" result="hardAlpha" />
            <feOffset dx="-4.26944" />
            <feComposite in2="hardAlpha" operator="out" />
            <feColorMatrix type="matrix" values="0 0 0 0 0 0 0 0 0 0 0 0 0 0 0 0 0 0 0.01 0" />
            <feBlend mode="normal" in2="effect1_dropShadow_766_4780"
                result="effect2_dropShadow_766_4780" />
            <feColorMatrix in="SourceAlpha" type="matrix"
                values="0 0 0 0 0 0 0 0 0 0 0 0 0 0 0 0 0 0 127 0" result="hardAlpha" />
            <feOffset dx="-7.92897" />
            <feComposite in2="hardAlpha" operator="out" />
            <feColorMatrix type="matrix" values="0 0 0 0 0 0 0 0 0 0 0 0 0 0 0 0 0 0 0.01 0" />
            <feBlend mode="normal" in2="effect2_dropShadow_766_4780"
                result="effect3_dropShadow_766_4780" />
            <feBlend mode="normal" in="SourceGraphic" in2="effect3_dropShadow_766_4780"
                result="shape" />
        </filter>
        <filter id="filter2_ddd_766_4780" x="143.708" y="60.4893" width="69.9114" height="61.9834"
            filterUnits="userSpaceOnUse" color-interpolation-filters="sRGB">
            <feFlood flood-opacity="0" result="BackgroundImageFix" />
            <feColorMatrix in="SourceAlpha" type="matrix"
                values="0 0 0 0 0 0 0 0 0 0 0 0 0 0 0 0 0 0 127 0" result="hardAlpha" />
            <feOffset dx="-1.21984" />
            <feComposite in2="hardAlpha" operator="out" />
            <feColorMatrix type="matrix" values="0 0 0 0 0 0 0 0 0 0 0 0 0 0 0 0 0 0 0.05 0" />
            <feBlend mode="normal" in2="BackgroundImageFix" result="effect1_dropShadow_766_4780" />
            <feColorMatrix in="SourceAlpha" type="matrix"
                values="0 0 0 0 0 0 0 0 0 0 0 0 0 0 0 0 0 0 127 0" result="hardAlpha" />
            <feOffset dx="-4.26944" />
            <feComposite in2="hardAlpha" operator="out" />
            <feColorMatrix type="matrix" values="0 0 0 0 0 0 0 0 0 0 0 0 0 0 0 0 0 0 0.01 0" />
            <feBlend mode="normal" in2="effect1_dropShadow_766_4780"
                result="effect2_dropShadow_766_4780" />
            <feColorMatrix in="SourceAlpha" type="matrix"
                values="0 0 0 0 0 0 0 0 0 0 0 0 0 0 0 0 0 0 127 0" result="hardAlpha" />
            <feOffset dx="-7.92897" />
            <feComposite in2="hardAlpha" operator="out" />
            <feColorMatrix type="matrix" values="0 0 0 0 0 0 0 0 0 0 0 0 0 0 0 0 0 0 0.01 0" />
            <feBlend mode="normal" in2="effect2_dropShadow_766_4780"
                result="effect3_dropShadow_766_4780" />
            <feBlend mode="normal" in="SourceGraphic" in2="effect3_dropShadow_766_4780"
                result="shape" />
        </filter>
        <filter id="filter3_ddi_766_4780" x="197.152" y="60.4893" width="66.8618" height="61.9834"
            filterUnits="userSpaceOnUse" color-interpolation-filters="sRGB">
            <feFlood flood-opacity="0" result="BackgroundImageFix" />
            <feColorMatrix in="SourceAlpha" type="matrix"
                values="0 0 0 0 0 0 0 0 0 0 0 0 0 0 0 0 0 0 127 0" result="hardAlpha" />
            <feOffset dx="-1.82976" />
            <feComposite in2="hardAlpha" operator="out" />
            <feColorMatrix type="matrix"
                values="0 0 0 0 0.622609 0 0 0 0 0.298852 0 0 0 0 0 0 0 0 0.08 0" />
            <feBlend mode="normal" in2="BackgroundImageFix" result="effect1_dropShadow_766_4780" />
            <feColorMatrix in="SourceAlpha" type="matrix"
                values="0 0 0 0 0 0 0 0 0 0 0 0 0 0 0 0 0 0 127 0" result="hardAlpha" />
            <feOffset dx="-4.87936" />
            <feComposite in2="hardAlpha" operator="out" />
            <feColorMatrix type="matrix"
                values="0 0 0 0 0.623529 0 0 0 0 0.298039 0 0 0 0 0 0 0 0 0.05 0" />
            <feBlend mode="normal" in2="effect1_dropShadow_766_4780"
                result="effect2_dropShadow_766_4780" />
            <feBlend mode="normal" in="SourceGraphic" in2="effect2_dropShadow_766_4780"
                result="shape" />
            <feColorMatrix in="SourceAlpha" type="matrix"
                values="0 0 0 0 0 0 0 0 0 0 0 0 0 0 0 0 0 0 127 0" result="hardAlpha" />
            <feOffset />
            <feGaussianBlur stdDeviation="9.9722" />
            <feComposite in2="hardAlpha" operator="arithmetic" k2="-1" k3="1" />
            <feColorMatrix type="matrix"
                values="0 0 0 0 0.598463 0 0 0 0 0.188472 0 0 0 0 0.112692 0 0 0 1 0" />
            <feBlend mode="multiply" in2="shape" result="effect3_innerShadow_766_4780" />
        </filter>
        <linearGradient id="paint0_linear_766_4780" x1="233.023" y1="122.472" x2="269.049"
            y2="72.4737" gradientUnits="userSpaceOnUse">
            <stop stop-color="#F1632B" />
            <stop offset="1" stop-color="#FF9A58" />
        </linearGradient>
        <linearGradient id="paint1_linear_766_4780" x1="268.233" y1="39.224" x2="194.544"
            y2="77.7085" gradientUnits="userSpaceOnUse">
            <stop stop-color="#F1632B" />
            <stop offset="1" stop-color="#FF9A58" />
        </linearGradient>
        <linearGradient id="paint2_linear_766_4780" x1="132.233" y1="0.264648" x2="132.233"
            y2="172.699" gradientUnits="userSpaceOnUse">
            <stop stop-color="#D9D9D9" />
            <stop offset="0.302978" stop-color="#D9D9D9" stop-opacity="0" />
            <stop offset="0.775125" stop-color="#D9D9D9" stop-opacity="0" />
            <stop offset="0.866381" stop-color="#D9D9D9" />
            <stop offset="0.964274" stop-color="#D9D9D9" stop-opacity="0" />
        </linearGradient>
    </defs>
</svg>